<?xml version="1.0" standalone="no"?>
<!DOCTYPE svg PUBLIC "-//W3C//DTD SVG 20010904//EN"
 "http://www.w3.org/TR/2001/REC-SVG-20010904/DTD/svg10.dtd">
<svg version="1.0" xmlns="http://www.w3.org/2000/svg"
 width="1600.000000pt" height="1600.000000pt" viewBox="0 0 1600.000000 1600.000000"
 preserveAspectRatio="xMidYMid meet">

<g transform="translate(0.000000,1600.000000) scale(0.100000,-0.100000)"
fill="#000000" stroke="none">
<path d="M0 10981 l0 -5019 188 -126 c103 -70 203 -139 224 -154 20 -15 91
-67 157 -117 216 -160 374 -264 476 -315 307 -151 458 -185 840 -185 205 0
241 3 335 23 288 65 405 114 570 238 122 92 177 153 286 316 80 120 110 177
249 478 31 69 61 129 65 133 9 10 103 -121 165 -231 6 -10 26 -38 46 -62 20
-25 56 -74 79 -110 37 -55 134 -184 182 -240 7 -9 47 -61 88 -115 76 -101 145
-176 188 -206 23 -16 26 -16 56 2 40 23 176 59 225 59 34 0 71 14 61 23 -3 3
-23 14 -46 25 -83 42 -165 104 -211 160 -118 144 -263 334 -370 487 -42 61
-80 112 -83 115 -9 7 -194 290 -211 322 -8 15 -30 55 -50 90 -20 35 -94 176
-164 313 -70 138 -131 255 -136 260 -7 10 -37 87 -111 289 -57 157 -82 326
-76 526 4 160 9 177 72 242 39 40 43 48 23 48 -8 0 -63 24 -123 54 -88 44
-121 67 -170 118 -104 109 -130 172 -154 383 -6 55 -16 136 -21 180 -11 76 -7
462 6 615 20 252 28 329 45 435 11 66 27 145 35 175 8 30 24 96 35 145 11 50
39 153 61 230 23 77 50 172 61 210 94 341 288 719 438 859 85 78 168 118 257
124 l73 5 0 41 c1 45 8 87 64 366 73 365 98 469 162 680 129 423 261 751 348
865 125 163 272 222 401 161 65 -30 102 -68 131 -134 22 -47 24 -67 24 -191 0
-138 -18 -262 -65 -446 -9 -33 -25 -100 -36 -150 -11 -49 -23 -101 -26 -115
-6 -23 -4 -22 38 13 24 20 89 74 144 120 279 232 504 359 1130 637 47 21 250
99 300 115 265 86 378 95 489 39 103 -52 156 -133 164 -251 2 -40 0 -85 -7
-103 -13 -38 -25 -38 160 3 64 14 172 33 240 42 68 8 162 21 209 28 141 20
772 16 945 -6 174 -23 369 -54 415 -66 62 -17 209 -51 220 -51 6 0 10 28 10
69 0 78 16 124 62 176 39 46 89 71 153 78 28 4 73 9 100 13 37 4 83 -1 175
-21 185 -41 225 -50 330 -80 52 -15 120 -33 150 -42 30 -8 150 -46 265 -85
l210 -71 375 -8 c449 -9 884 -24 1345 -44 491 -22 565 -28 602 -48 75 -40 142
-119 162 -193 20 -71 56 -377 56 -474 0 -189 -34 -228 -320 -363 -110 -51
-218 -100 -240 -107 -46 -15 -300 -140 -354 -175 -20 -12 -57 -30 -83 -40
l-46 -17 19 -34 c10 -19 29 -51 41 -71 25 -42 95 -173 162 -303 37 -73 119
-250 146 -315 4 -11 25 -58 45 -105 21 -47 45 -114 55 -150 10 -36 37 -119 60
-185 91 -257 190 -643 190 -738 0 -22 9 -91 20 -155 56 -339 54 -1186 -5
-1499 -74 -394 -135 -628 -235 -903 -33 -90 -37 -99 -123 -280 -30 -63 -58
-126 -62 -140 -4 -14 -11 -29 -15 -35 -5 -5 -30 -53 -58 -105 -199 -383 -285
-519 -495 -785 -76 -96 -322 -372 -361 -404 -10 -9 -30 -25 -44 -37 l-25 -21
56 -71 c31 -39 61 -74 67 -77 6 -3 28 -39 51 -80 22 -40 45 -75 52 -77 20 -7
262 -1 260 6 -4 15 -115 233 -129 253 -15 20 -11 26 85 130 55 59 112 125 128
146 15 21 54 70 85 108 32 39 66 84 75 100 10 16 21 29 25 29 4 0 8 5 8 10 0
6 25 44 55 84 30 40 55 76 55 80 0 14 61 86 73 86 7 0 23 -17 37 -37 96 -143
267 -327 381 -410 88 -65 219 -136 315 -173 49 -18 127 -48 174 -66 97 -38
246 -78 370 -99 47 -8 109 -20 139 -26 55 -11 259 2 346 21 22 5 78 16 125 25
153 29 272 82 475 210 146 93 381 325 500 495 33 47 87 114 119 150 254 279
463 673 637 1204 l59 179 0 4058 0 4059 -8000 0 -8000 0 0 -5019z m10444 4016
c47 -36 66 -75 66 -134 0 -57 -32 -128 -71 -156 -30 -22 -94 -32 -143 -23 -72
14 -135 98 -136 179 0 55 26 104 74 139 37 27 47 29 107 26 54 -3 73 -9 103
-31z m1070 -151 c44 -18 151 -100 175 -135 78 -110 22 -304 -98 -340 -99 -29
-152 -10 -238 87 -57 63 -76 122 -71 222 3 70 6 82 34 117 17 21 42 44 55 50
32 17 102 16 143 -1z m26 -905 c127 -12 175 -35 270 -130 82 -83 124 -148 110
-171 -10 -16 39 -16 -573 -5 -423 7 -500 10 -504 23 -7 17 98 124 172 176 146
102 279 129 525 107z m-9840 -1297 c56 -22 79 -60 86 -136 5 -59 4 -66 -26
-111 -18 -26 -71 -81 -117 -122 -80 -70 -89 -75 -132 -75 -47 0 -123 32 -175
73 -29 24 -43 77 -32 121 10 42 170 221 213 239 77 32 123 35 183 11z m391
-593 c112 -19 133 -29 216 -98 83 -70 153 -241 153 -376 0 -49 -26 -177 -49
-247 -36 -105 -46 -173 -45 -315 0 -77 4 -155 8 -174 12 -48 -11 -164 -46
-235 -37 -74 -105 -147 -176 -189 -30 -17 -68 -40 -84 -50 -17 -10 -74 -37
-127 -60 l-96 -42 -135 0 -135 0 -88 43 c-154 76 -245 189 -270 339 -18 112
-2 171 106 393 187 384 242 521 251 624 14 142 57 255 123 317 94 90 186 106
394 70z m12820 -168 c46 -28 79 -84 86 -145 7 -71 -9 -119 -54 -163 -31 -30
-43 -35 -85 -35 -124 0 -194 96 -174 235 8 48 44 101 80 115 37 15 116 11 147
-7z m-14157 -603 c52 -19 81 -102 55 -153 -21 -41 -51 -57 -107 -57 -48 0 -57
4 -83 31 -50 53 -36 155 25 179 29 12 79 12 110 0z m13598 -670 c41 -12 131
-88 153 -131 48 -93 55 -154 35 -344 -23 -228 -37 -268 -117 -334 -127 -105
-354 -25 -405 143 -27 88 -6 448 31 531 53 120 169 172 303 135z m-633 -775
c142 -34 287 -148 348 -275 89 -182 107 -256 108 -425 0 -139 -6 -201 -32
-335 -12 -59 -17 -141 -17 -270 -1 -199 -3 -209 -67 -348 -16 -35 -29 -72 -29
-82 0 -51 -72 -234 -106 -268 -8 -7 -14 -17 -14 -21 0 -4 -29 -37 -64 -73
-111 -112 -270 -177 -405 -165 -143 12 -283 77 -375 172 -45 47 -97 138 -97
170 0 31 19 164 31 220 6 28 20 106 31 175 11 69 25 152 30 185 6 33 12 89 14
125 3 59 26 167 40 189 3 5 9 153 15 328 10 350 17 398 73 492 38 63 118 138
185 171 89 46 224 60 331 35z m-12216 -2412 c87 -55 88 -183 2 -219 -109 -45
-235 21 -235 124 0 34 22 101 33 102 1 0 20 7 42 15 51 18 109 10 158 -22z"/>
<path d="M4493 13660 c-21 -9 -95 -109 -112 -152 -5 -13 -23 -52 -39 -88 -17
-36 -40 -89 -52 -119 -11 -30 -30 -74 -41 -97 -10 -24 -19 -46 -19 -50 0 -4
-30 -97 -66 -208 -81 -251 -137 -473 -209 -827 -61 -306 -80 -464 -80 -675 0
-128 2 -145 24 -192 42 -90 144 -118 202 -56 13 14 44 63 69 109 146 272 379
617 527 781 112 125 456 461 543 531 214 172 450 331 765 516 42 25 389 198
450 224 145 63 182 83 204 106 27 29 24 59 -9 96 -17 21 -25 23 -70 17 -51 -7
-245 -67 -342 -106 -125 -51 -228 -95 -308 -132 -47 -22 -130 -60 -185 -83
-55 -24 -147 -68 -204 -99 -58 -31 -106 -56 -108 -56 -1 0 -32 -18 -68 -40
-36 -22 -68 -40 -70 -40 -17 0 -294 -214 -420 -324 -38 -34 -86 -74 -105 -91
-81 -68 -250 -249 -355 -380 -110 -137 -145 -176 -145 -159 0 16 60 377 81
487 23 122 28 147 42 222 14 74 55 252 77 335 22 79 60 251 76 335 17 94 14
186 -7 211 -13 16 -16 16 -46 4z"/>
<path d="M9408 13462 l-38 -3 0 -48 c0 -72 16 -85 160 -130 299 -93 508 -191
734 -344 l59 -40 207 6 c201 6 445 -7 636 -32 185 -25 316 -40 424 -51 63 -7
150 -18 192 -26 43 -8 128 -19 190 -25 171 -15 198 -19 198 -30 0 -5 -8 -13
-17 -16 -10 -4 -70 -35 -133 -69 -203 -110 -461 -243 -610 -314 -275 -132
-295 -144 -298 -167 -2 -15 19 -44 78 -105 176 -179 372 -472 527 -788 190
-386 274 -609 353 -940 133 -560 163 -771 161 -1135 -1 -286 -18 -481 -58
-665 -15 -67 -66 -272 -78 -310 -2 -8 -9 -35 -15 -60 -42 -172 -188 -554 -304
-796 -218 -450 -460 -794 -813 -1155 -84 -86 -153 -159 -153 -163 0 -3 17 -6
37 -6 41 0 84 -12 161 -47 29 -12 57 -23 63 -23 6 0 45 -18 87 -40 67 -36 79
-40 104 -29 34 14 250 248 376 409 29 36 55 70 59 75 149 187 363 548 492 826
268 582 421 1253 421 1859 0 378 -30 711 -91 1015 -33 166 -130 525 -182 680
-124 364 -359 841 -566 1147 -39 58 -71 108 -71 111 0 4 71 42 158 85 86 43
218 110 292 149 146 76 458 222 603 281 110 45 120 57 107 137 -5 33 -16 125
-25 205 -15 131 -19 148 -43 172 -14 15 -39 30 -56 33 -17 2 -188 12 -381 20
-192 9 -404 20 -470 25 -120 9 -606 20 -1105 25 l-265 2 -135 48 c-235 82
-402 135 -510 162 -172 42 -422 88 -462 85z"/>
<path d="M7715 13280 c-11 -5 -42 -9 -68 -9 -72 -1 -338 -30 -372 -41 -16 -5
-73 -17 -125 -26 -52 -9 -117 -22 -145 -30 -27 -8 -106 -30 -175 -49 -200 -56
-471 -162 -640 -249 -113 -58 -324 -177 -341 -192 -8 -8 -19 -14 -23 -14 -13
0 -199 -131 -304 -214 -56 -45 -119 -94 -140 -109 -73 -55 -313 -290 -404
-395 -51 -59 -98 -113 -105 -120 -7 -7 -13 -16 -13 -20 0 -4 -19 -27 -41 -52
-22 -25 -57 -70 -77 -100 -20 -30 -40 -57 -43 -60 -15 -14 -164 -247 -209
-330 -82 -148 -210 -408 -210 -426 0 -3 -7 -20 -15 -37 -16 -35 -59 -153 -99
-268 -59 -172 -122 -448 -162 -704 -9 -58 -17 -220 -20 -455 -5 -297 -3 -399
10 -549 9 -102 19 -188 22 -192 2 -4 16 -68 29 -141 34 -182 90 -390 148 -548
87 -238 112 -296 218 -505 107 -211 270 -467 419 -655 51 -65 257 -295 327
-365 110 -111 323 -290 460 -389 37 -27 84 -61 103 -76 114 -85 452 -270 640
-349 41 -18 86 -37 100 -43 65 -29 311 -113 430 -146 178 -50 268 -68 540
-112 236 -37 839 -38 1080 0 282 43 410 71 600 127 47 14 105 31 130 38 25 6
74 24 110 38 36 14 103 40 150 58 113 44 444 209 537 267 276 174 497 340 661
497 35 33 67 61 72 63 10 4 187 195 250 272 25 29 61 72 81 94 19 23 46 57 59
76 13 19 27 37 30 40 11 8 110 153 173 253 109 171 252 446 307 590 11 28 24
61 29 72 5 11 14 34 21 50 25 60 111 330 136 429 30 117 68 314 91 471 24 159
24 911 1 1070 -72 497 -186 862 -409 1308 -74 148 -148 270 -309 507 -152 224
-526 620 -729 772 -24 18 -59 44 -76 58 -86 66 -145 110 -149 110 -3 0 -32 19
-63 43 -32 24 -114 76 -181 116 -127 75 -432 231 -452 231 -6 0 -27 8 -48 19
-58 29 -335 125 -462 160 -63 17 -128 36 -145 40 -16 5 -73 17 -125 26 -52 9
-108 20 -125 25 -34 10 -174 27 -345 42 -153 13 -590 19 -615 8z m675 -89 c30
-5 118 -19 195 -30 77 -12 153 -25 170 -30 16 -5 66 -17 110 -26 44 -9 89 -20
100 -25 11 -4 49 -16 85 -25 36 -9 90 -25 120 -36 113 -38 176 -60 195 -69 11
-5 54 -22 95 -38 145 -57 418 -196 550 -280 162 -103 366 -245 390 -271 3 -3
25 -22 50 -41 110 -85 376 -344 493 -480 45 -52 85 -96 90 -98 4 -2 7 -8 7
-13 0 -5 26 -42 59 -82 226 -278 470 -739 607 -1147 63 -187 118 -418 146
-615 11 -77 24 -156 29 -175 5 -19 14 -124 19 -233 10 -203 0 -536 -20 -627
-5 -25 -18 -108 -29 -185 -24 -169 -93 -467 -129 -555 -6 -14 -18 -50 -27 -80
-76 -253 -270 -647 -451 -917 -154 -229 -253 -351 -454 -558 -334 -344 -695
-608 -1100 -802 -120 -58 -232 -107 -305 -134 -44 -17 -96 -36 -115 -43 -161
-61 -464 -140 -635 -167 -203 -32 -214 -34 -375 -48 -218 -19 -636 -9 -760 19
-25 5 -90 16 -145 24 -396 59 -868 219 -1230 419 -87 48 -269 166 -348 227
-21 16 -52 39 -68 52 -93 71 -449 421 -449 441 0 5 -19 28 -42 51 -24 24 -59
63 -78 86 -19 23 -47 56 -62 74 -61 71 -98 118 -98 125 0 4 -9 17 -19 28 -42
45 -269 402 -238 373 3 -3 120 -117 259 -255 139 -137 298 -293 353 -345 56
-52 141 -133 191 -180 99 -95 209 -190 231 -204 17 -9 42 -5 123 18 57 17 274
57 440 82 209 32 806 28 1045 -6 328 -47 511 -83 777 -156 219 -60 265 -65
320 -31 102 61 258 164 298 197 61 49 219 141 375 220 81 40 131 71 133 82 2
12 -27 36 -104 85 -58 37 -168 108 -243 157 -75 50 -235 152 -356 229 -215
135 -253 162 -244 171 7 7 441 -23 498 -35 30 -6 84 -23 120 -38 283 -118 384
-161 506 -216 77 -34 157 -65 178 -68 34 -5 39 -3 50 21 6 15 75 90 152 167
206 206 451 512 581 728 48 79 49 82 53 176 l3 95 58 97 c163 269 301 556 379
787 109 326 188 769 222 1246 13 193 7 686 -10 756 -6 25 -13 55 -16 68 -6 23
-25 31 -25 10 0 -14 -58 -170 -123 -333 -113 -285 -337 -664 -606 -1025 -73
-99 -155 -204 -171 -220 -3 -3 -30 -34 -60 -70 -79 -94 -289 -310 -368 -378
-106 -92 -280 -221 -374 -278 -69 -41 -96 -51 -214 -75 -75 -16 -183 -42 -241
-59 -58 -16 -112 -30 -121 -30 -16 0 -17 -2 27 117 45 123 62 228 62 388 0
153 -13 237 -62 395 -33 108 -119 287 -134 280 -5 -3 -17 -34 -26 -70 -36
-139 -100 -313 -143 -385 -95 -162 -214 -261 -376 -316 -140 -47 -292 -33
-423 39 -55 30 -144 113 -181 169 -75 114 -59 300 34 407 27 30 32 41 23 54
-14 24 -237 172 -575 383 -322 200 -510 322 -635 411 -45 32 -87 58 -93 58
-29 0 2 40 81 105 47 38 171 144 275 234 245 212 405 321 554 376 141 53 129
74 -33 57 -56 -6 -136 -14 -177 -17 -343 -28 -673 -82 -856 -140 -200 -64
-658 -308 -1164 -618 -152 -94 -498 -322 -623 -412 l-78 -55 5 32 c3 18 13 80
21 138 9 58 18 114 21 125 5 21 24 92 69 260 14 55 30 109 35 120 4 11 22 58
38 105 17 47 45 114 62 150 83 173 105 216 116 230 6 8 28 47 49 85 20 39 49
89 64 111 14 23 39 64 55 90 31 51 106 152 131 178 9 8 32 37 52 63 80 106
332 358 463 463 30 24 62 50 70 57 54 46 140 113 145 113 3 0 11 4 18 10 68
56 249 172 392 252 78 44 350 178 361 178 3 0 31 12 62 26 31 15 82 35 112 45
30 9 96 32 145 49 194 69 493 140 653 155 37 3 78 11 92 16 50 18 262 28 545
23 160 -2 315 -8 345 -13z m-1889 -4072 c222 -166 377 -269 611 -410 87 -52
153 -96 148 -97 -6 -2 -63 7 -128 21 -64 14 -135 28 -157 32 -116 18 -145 33
-245 128 -52 51 -134 127 -180 169 -47 42 -123 112 -170 156 l-85 80 66 -12
c54 -10 78 -22 140 -67z"/>
<path d="M10641 12660 l-75 -5 72 -57 c39 -32 117 -101 173 -153 113 -106 96
-101 161 -45 25 22 158 88 193 96 53 12 191 93 178 104 -4 4 -79 13 -166 19
-87 7 -177 18 -200 26 -46 15 -221 23 -336 15z"/>
<path d="M3537 11509 c-81 -53 -226 -273 -296 -449 -51 -126 -111 -299 -136
-389 -12 -47 -37 -133 -54 -191 -71 -247 -129 -548 -151 -785 -18 -207 -24
-539 -11 -690 13 -151 43 -321 66 -365 22 -43 79 -87 171 -131 72 -34 102 -42
178 -49 89 -8 92 -9 126 -48 19 -22 47 -61 61 -88 26 -48 27 -49 79 -52 43 -3
59 2 93 24 51 34 81 68 108 124 19 40 21 57 16 150 -3 58 -12 164 -21 235 -44
365 -47 957 -6 1195 22 128 106 462 134 537 44 114 99 306 103 361 5 56 3 65
-18 89 -31 33 -78 53 -126 53 -80 1 -96 41 -108 265 -7 145 -22 188 -76 216
-52 26 -78 24 -132 -12z m-17 -421 c0 -7 -7 -35 -15 -62 -8 -27 -15 -60 -15
-74 0 -23 2 -24 40 -18 l40 6 0 -35 c0 -30 10 -46 59 -97 57 -59 61 -61 87
-50 l27 13 -5 -38 c-3 -21 -22 -81 -42 -133 -53 -136 -99 -293 -161 -545 -85
-351 -112 -612 -101 -1001 3 -131 9 -263 12 -291 6 -56 -11 -76 -21 -25 -19
88 -39 141 -57 145 -20 6 -20 5 -49 -75 -16 -46 -43 -49 -104 -14 -48 27 -60
56 -81 200 -16 108 -13 516 6 730 27 307 163 886 263 1122 14 33 39 100 56
147 16 48 33 92 36 97 9 14 25 12 25 -2z"/>
<path d="M3600 10762 c0 -28 24 -46 39 -28 8 10 8 16 -1 23 -30 23 -38 24 -38
5z"/>
<path d="M3836 8105 c-21 -19 -58 -44 -82 -56 -53 -25 -57 2 48 -313 69 -208
96 -272 205 -490 69 -138 145 -282 170 -320 l45 -69 29 52 c20 35 45 62 74 79
48 29 52 37 31 61 -41 47 -247 456 -321 641 -42 103 -135 377 -135 398 0 10
-6 25 -12 34 -12 15 -17 13 -52 -17z"/>
<path d="M3304 8069 c-45 -23 -57 -62 -49 -172 15 -223 120 -540 285 -862 231
-450 257 -493 594 -969 16 -22 57 -75 90 -116 34 -41 92 -117 130 -168 42 -57
83 -101 105 -113 20 -10 48 -29 62 -40 38 -30 58 -19 103 59 51 87 139 213
180 257 24 25 42 35 64 35 22 0 64 22 139 71 175 116 175 107 -2 256 -111 92
-192 179 -290 309 -134 178 -149 191 -220 185 -27 -3 -55 -38 -55 -69 0 -13
35 -91 79 -171 46 -86 81 -164 85 -189 3 -23 20 -64 36 -90 24 -39 27 -50 17
-64 -7 -9 -33 -43 -58 -77 l-47 -60 -43 31 c-143 101 -401 442 -591 778 -71
126 -264 522 -283 580 -9 30 -26 75 -35 100 -10 25 -41 119 -70 210 -69 223
-91 284 -104 292 -16 11 -97 8 -122 -3z"/>
<path d="M15971 7322 c-115 -418 -241 -690 -486 -1052 -90 -133 -110 -159
-263 -337 -79 -92 -147 -159 -225 -221 -97 -77 -260 -192 -273 -192 -2 0 -28
-15 -57 -34 -83 -54 -309 -162 -395 -190 -43 -14 -118 -32 -167 -41 -50 -9
-116 -23 -147 -31 -32 -8 -67 -14 -78 -14 -43 0 -17 -18 43 -28 34 -7 127 -25
207 -42 227 -46 323 -54 501 -42 296 22 578 115 979 323 80 41 249 152 323
211 16 13 37 30 48 38 19 15 19 38 17 877 l-3 862 -24 -87z"/>
<path d="M10364 5876 c-172 -116 -654 -366 -864 -449 -131 -52 -359 -124 -502
-158 -54 -13 -98 -26 -98 -29 0 -4 18 -16 40 -29 45 -25 85 -73 95 -113 4 -16
11 -28 16 -28 4 0 38 23 74 50 117 89 208 126 377 155 201 35 391 -30 534
-183 l51 -54 21 59 c12 32 42 82 66 111 37 44 47 65 62 130 33 153 121 389
199 533 41 76 37 76 -71 5z"/>
<path d="M5608 5840 c77 -118 185 -364 217 -500 11 -41 22 -79 25 -83 4 -4 38
-3 75 4 127 22 262 -16 339 -95 61 -63 86 -137 105 -310 l16 -141 50 -27 c28
-15 53 -26 58 -25 4 1 23 45 41 97 75 213 132 307 241 396 54 44 148 84 198
84 78 1 54 18 -75 55 -114 32 -327 105 -393 134 -11 5 -85 35 -165 67 -192 76
-450 204 -705 350 l-50 28 23 -34z"/>
<path d="M10803 5686 c-28 -6 -54 -14 -58 -17 -3 -4 11 -17 32 -30 68 -41 206
-152 295 -237 l87 -84 72 12 c40 6 75 12 77 14 19 20 -206 260 -300 320 -63
40 -105 44 -205 22z"/>
<path d="M5060 5634 c-62 -36 -124 -86 -198 -161 -67 -69 -134 -161 -126 -174
2 -4 29 -22 60 -39 l55 -32 21 29 c40 52 172 179 238 227 36 27 100 69 143 94
42 25 75 47 73 50 -11 10 -124 32 -171 32 -35 0 -63 -8 -95 -26z"/>
<path d="M10542 5632 c-46 -46 -161 -299 -147 -322 2 -4 82 -10 177 -13 181
-7 296 -23 362 -51 52 -22 73 -20 87 6 11 21 6 28 -62 90 -41 38 -117 99 -169
136 -52 37 -120 87 -150 111 -30 24 -60 48 -67 53 -8 6 -18 3 -31 -10z"/>
<path d="M0 5247 l0 -373 53 -32 c125 -76 433 -190 602 -223 82 -16 123 -19
240 -13 148 6 357 25 540 48 61 8 153 17 205 21 88 6 174 19 307 46 61 12 93
39 47 40 -16 0 -67 4 -114 9 -47 6 -142 14 -212 20 -263 21 -486 85 -743 213
-179 89 -241 129 -570 367 -148 107 -289 208 -312 223 l-43 27 0 -373z"/>
<path d="M5475 5590 c-3 -5 -78 -57 -165 -115 -154 -102 -277 -206 -341 -286
l-32 -40 23 -25 c30 -31 35 -30 50 6 18 44 68 89 130 118 43 21 75 27 148 30
171 8 284 -43 359 -162 l25 -39 14 24 c18 33 17 65 -5 156 -32 131 -74 226
-138 311 -23 31 -56 42 -68 22z"/>
<path d="M7324 5188 c46 -31 113 -94 134 -125 29 -42 63 -141 86 -253 27 -126
29 -126 38 0 11 142 30 221 69 284 16 27 28 50 27 51 -2 1 -75 12 -163 24 -88
13 -171 25 -185 27 -23 4 -24 4 -6 -8z"/>
<path d="M11400 5165 c-229 -28 -263 -36 -278 -70 -15 -33 -4 -125 16 -133 9
-3 56 0 105 6 60 7 96 8 109 1 21 -11 21 -1 -13 -429 -26 -324 -47 -725 -41
-775 2 -22 9 -46 14 -52 13 -16 128 -17 198 -2 72 15 80 31 80 164 1 104 4
177 30 685 11 215 31 373 53 420 11 23 20 26 92 31 44 4 88 10 97 14 20 8 31
54 26 110 -2 32 -8 40 -28 46 -51 14 -271 6 -460 -16z"/>
<path d="M8370 5157 c-41 -5 -76 -11 -78 -12 -2 -2 10 -25 27 -51 16 -27 42
-82 56 -121 15 -40 31 -73 35 -73 4 0 10 39 12 88 2 66 8 97 26 130 12 23 22
45 22 47 0 6 3 6 -100 -8z"/>
<path d="M4362 5145 c-104 -25 -215 -128 -242 -223 -16 -60 -12 -173 9 -234
45 -132 115 -223 347 -453 100 -99 189 -195 199 -214 23 -45 15 -106 -19 -139
-30 -30 -118 -42 -166 -22 -62 26 -104 90 -125 192 -9 46 -42 68 -100 68 -84
0 -101 -34 -69 -141 41 -138 146 -263 261 -309 87 -34 218 -39 303 -10 179 60
265 210 215 376 -25 86 -85 162 -282 359 -169 169 -194 199 -228 267 -33 68
-37 83 -33 136 5 74 33 114 93 138 43 16 47 16 93 -1 68 -26 95 -59 121 -145
12 -41 27 -85 33 -96 23 -49 119 -60 157 -20 22 23 23 29 13 85 -25 138 -118
277 -232 344 -92 53 -232 71 -348 42z"/>
<path d="M10324 5095 c-52 -35 -92 -242 -115 -577 -14 -222 -7 -797 11 -846
23 -60 42 -63 226 -27 211 41 351 83 374 113 26 32 26 84 1 107 -19 16 -25 16
-128 -6 -205 -43 -198 -47 -198 115 l0 110 33 22 c20 14 56 25 95 29 124 13
137 24 137 111 0 60 -16 70 -93 56 -122 -23 -162 -25 -175 -9 -21 25 7 399 39
532 24 98 47 110 190 93 114 -13 139 -3 165 59 21 49 15 65 -30 87 -84 41
-485 65 -532 31z"/>
<path d="M5233 5075 c-68 -29 -67 -27 -76 -460 -9 -446 -1 -915 16 -952 16
-37 63 -56 148 -61 130 -8 119 -49 119 429 0 507 4 512 99 148 44 -167 46
-174 91 -328 52 -180 75 -211 159 -211 52 0 67 21 81 115 20 138 80 486 98
569 27 122 55 110 72 -32 14 -113 38 -354 45 -452 10 -136 25 -252 35 -271 22
-41 124 -49 177 -13 28 18 28 13 3 184 -5 41 -15 115 -20 164 -6 49 -17 145
-26 215 -8 69 -19 167 -24 216 -8 81 -50 454 -66 595 -7 58 -23 99 -47 118
-23 19 -115 33 -157 23 -67 -15 -76 -34 -110 -221 -21 -119 -72 -439 -90 -570
-16 -118 -31 -183 -40 -174 -9 10 -46 153 -160 619 -40 160 -78 301 -87 313
-8 13 -30 30 -48 38 -43 18 -150 18 -192 -1z"/>
<path d="M9490 5084 c-110 -21 -211 -73 -281 -144 -78 -80 -111 -153 -117
-256 -10 -190 55 -289 410 -619 74 -69 99 -99 108 -130 17 -59 -3 -111 -58
-150 -38 -26 -52 -30 -113 -30 -66 0 -70 1 -106 37 -32 32 -38 46 -48 110 -13
87 -30 102 -109 94 -83 -9 -109 -47 -94 -141 37 -236 231 -358 477 -300 240
57 405 254 370 441 -15 81 -58 143 -174 254 -211 202 -251 246 -284 310 -62
125 -30 244 81 301 47 24 82 24 135 0 53 -25 70 -52 87 -137 7 -38 18 -79 25
-91 23 -44 133 -38 166 10 28 39 14 145 -32 247 -28 63 -97 128 -173 164 -56
27 -77 31 -155 33 -49 0 -101 -1 -115 -3z"/>
<path d="M8660 5048 l-35 -13 -5 -170 c-3 -93 -4 -309 -2 -480 4 -337 -4 -470
-27 -470 -9 0 -41 67 -86 180 -97 243 -308 779 -329 837 -24 67 -51 96 -99
109 -52 14 -193 3 -224 -17 -64 -41 -70 -111 -79 -849 -8 -631 -9 -615 67
-635 55 -15 194 -9 211 8 10 10 13 88 13 350 0 445 2 494 19 517 29 40 50 3
181 -321 40 -99 96 -248 125 -332 38 -109 61 -162 85 -189 l33 -38 83 2 c127
2 167 11 185 38 17 26 26 175 44 720 5 176 15 411 22 523 11 182 10 204 -4
218 -21 21 -131 28 -178 12z"/>
<path d="M6934 5025 c-101 -52 -193 -231 -273 -536 -69 -262 -109 -517 -126
-800 -6 -102 -6 -107 16 -128 28 -26 76 -36 132 -27 70 11 77 24 77 140 0 61
5 111 13 126 17 35 81 49 252 57 161 7 170 3 179 -70 3 -23 9 -80 15 -126 12
-107 24 -121 115 -128 76 -7 139 12 176 52 l24 25 -13 123 c-23 221 -98 700
-142 906 -58 273 -76 323 -129 361 -78 56 -231 68 -316 25z m101 -278 c39 -52
63 -159 111 -503 21 -146 12 -184 -49 -213 -51 -25 -108 -37 -209 -46 -103 -9
-113 0 -104 93 10 103 35 243 71 397 51 215 91 305 135 305 11 0 30 -15 45
-33z"/>
<path d="M11942 4878 c-5 -5 -34 -18 -64 -28 -51 -17 -53 -18 -59 -61 -15
-102 -32 -302 -35 -414 -1 -66 -6 -156 -9 -200 -3 -44 -7 -151 -9 -237 l-4
-157 94 -3 c52 -2 94 1 94 6 0 25 -33 193 -41 208 -5 10 -9 103 -9 207 l0 189
35 82 35 82 0 163 c0 90 -4 166 -8 169 -5 3 -14 0 -20 -6z"/>
<path d="M10961 4789 c-47 -39 -112 -59 -191 -59 l-66 0 -12 -58 c-7 -32 -12
-87 -12 -123 l0 -64 63 0 c119 -1 180 -57 198 -180 11 -76 -6 -159 -41 -207
-11 -15 -20 -31 -20 -36 0 -5 21 -22 46 -38 73 -46 89 -81 89 -196 l-1 -96 27
-6 c15 -3 39 -8 54 -12 27 -7 28 -6 23 27 -9 61 32 771 57 992 l6 47 -56 0
c-35 0 -70 7 -93 19 l-37 19 -34 -29z"/>
<path d="M4887 4464 c-8 -8 61 -84 76 -84 4 0 7 19 5 43 -3 40 -4 42 -38 45
-20 2 -39 0 -43 -4z"/>
<path d="M13063 3768 c-17 -6 -35 -18 -38 -26 -6 -17 -65 -436 -95 -677 -12
-97 -38 -243 -45 -255 -10 -16 -23 -12 -30 9 -3 10 -18 74 -34 142 -29 121
-42 178 -115 484 -66 275 -56 260 -169 252 -47 -4 -90 -13 -108 -24 -57 -34
-73 -95 -139 -518 -17 -110 -35 -227 -41 -260 -17 -101 -61 -408 -63 -439 -2
-49 32 -61 122 -46 73 12 102 28 102 57 0 14 -2 14 -19 -1 -20 -18 -38 -21
-113 -18 -38 2 -49 6 -58 25 -10 20 -10 20 3 5 16 -20 107 -26 107 -8 0 6 5
10 11 10 5 0 7 -4 4 -10 -13 -21 24 -9 52 18 27 24 31 37 42 132 7 58 15 125
17 150 2 25 9 70 14 100 5 30 17 96 25 146 29 178 56 213 88 114 38 -117 91
-342 121 -515 25 -142 29 -145 162 -114 103 24 108 28 123 101 63 314 98 505
142 783 6 39 22 126 35 194 13 68 24 141 24 163 l0 38 -47 -1 c-27 -1 -62 -6
-80 -11z m-646 -1210 c-3 -7 -5 -2 -5 12 0 14 2 19 5 13 2 -7 2 -19 0 -25z
m-124 -85 c-7 -2 -19 -2 -25 0 -7 3 -2 5 12 5 14 0 19 -2 13 -5z m-28 -36 c39
-4 39 -4 -7 -5 -27 -1 -48 0 -48 2 0 2 -3 13 -6 23 -6 17 -6 17 7 1 8 -9 32
-19 54 -21z"/>
<path d="M3048 3665 c-59 -19 -141 -97 -170 -162 -73 -165 -78 -371 -15 -593
11 -41 24 -77 28 -80 4 -3 11 -19 15 -35 8 -34 43 -100 87 -163 108 -159 305
-260 454 -232 116 21 175 104 180 253 3 104 -9 136 -61 161 -31 14 -92 16
-114 2 -4 -2 -6 -25 -4 -51 3 -32 7 -43 13 -34 6 10 9 8 9 -9 0 -13 -4 -20
-10 -17 -6 4 -10 -9 -10 -32 0 -29 3 -35 11 -23 8 11 9 9 4 -10 -4 -14 -18
-37 -31 -51 -13 -14 -22 -28 -18 -32 10 -9 -63 -20 -92 -13 -41 11 -110 82
-143 149 -83 168 -116 510 -66 682 22 75 66 125 110 125 76 0 134 -77 161
-215 21 -106 32 -121 97 -135 98 -22 114 6 81 147 -37 162 -146 305 -269 352
-76 30 -183 36 -247 16z m-13 -1025 c-3 -5 -1 -10 4 -10 6 0 11 -5 11 -11 0
-8 -5 -8 -15 1 -13 11 -12 30 1 30 3 0 2 -4 -1 -10z m558 -87 c-7 -2 -21 -2
-30 0 -10 3 -4 5 12 5 17 0 24 -2 18 -5z m-473 -17 c-7 -7 -14 -6 -21 1 -9 9
-7 12 9 10 14 -1 18 -5 12 -11z m80 4 c0 -5 -2 -10 -4 -10 -3 0 -8 5 -11 10
-3 6 -1 10 4 10 6 0 11 -4 11 -10z m340 -11 c0 -6 -4 -7 -10 -4 -5 3 -10 11
-10 16 0 6 5 7 10 4 6 -3 10 -11 10 -16z m43 -8 c-10 -11 -29 -33 -42 -49 -13
-17 -29 -28 -36 -25 -7 2 -16 0 -20 -6 -3 -6 -21 -10 -38 -10 -24 1 -26 3 -9
6 12 2 20 8 17 12 -8 14 -55 0 -55 -16 0 -12 -9 -13 -42 -8 -60 9 -78 15 -78
25 0 5 12 4 26 -2 20 -9 30 -9 45 0 10 7 35 12 54 12 19 0 35 4 35 10 0 5 -23
7 -52 5 -51 -4 -51 -4 -13 5 22 5 63 9 92 9 46 1 52 -1 46 -16 -5 -14 -1 -13
16 4 11 12 21 26 21 31 0 12 22 32 37 32 9 0 8 -6 -4 -19z m-429 -7 c5 -14 4
-15 -9 -4 -17 14 -19 20 -6 20 5 0 12 -7 15 -16z m286 7 c0 -11 -66 -19 -100
-12 -19 5 -14 7 25 12 28 3 56 7 63 7 6 1 12 -2 12 -7z m-195 -33 c44 3 58 0
76 -17 25 -23 20 -27 -12 -8 -18 10 -23 9 -32 -4 -8 -13 -16 -15 -39 -7 -15 6
-28 14 -28 19 0 5 -5 8 -12 7 -6 -2 -13 4 -13 12 -1 8 0 11 2 5 2 -6 27 -8 58
-7z"/>
<path d="M3470 2470 c0 -5 5 -10 10 -10 6 0 10 5 10 10 0 6 -4 10 -10 10 -5 0
-10 -4 -10 -10z"/>
<path d="M3236 2469 c3 -5 11 -9 19 -9 8 0 16 4 19 9 3 5 -5 9 -19 9 -14 0
-22 -4 -19 -9z"/>
<path d="M11675 3596 c-96 -20 -161 -45 -225 -87 -123 -82 -170 -181 -209
-434 -42 -268 -41 -587 0 -688 44 -107 357 -114 557 -13 124 62 177 158 232
418 66 312 78 583 31 681 -57 119 -192 162 -386 123z m182 -201 c27 -19 43
-85 43 -177 0 -123 -36 -377 -76 -541 -13 -54 -21 -104 -17 -110 3 -7 3 -9 -1
-6 -4 4 -18 -3 -30 -15 -38 -34 -96 -67 -96 -53 0 8 -3 9 -8 1 -10 -15 -152
-17 -149 -1 1 7 -5 12 -13 11 -32 -2 -24 298 15 566 22 145 52 236 92 277 55
54 192 82 240 48z m-610 -907 c-3 -8 -6 -5 -6 6 -1 11 2 17 5 13 3 -3 4 -12 1
-19z m490 6 c-3 -3 -12 -4 -19 -1 -8 3 -5 6 6 6 11 1 17 -2 13 -5z m146 -36
c-9 -10 -33 -25 -54 -35 -21 -9 -36 -20 -34 -24 3 -4 -7 -9 -20 -12 -14 -2
-28 0 -31 5 -3 4 0 7 7 6 6 -2 14 4 16 12 3 9 1 11 -4 5 -11 -14 -40 -17 -48
-5 -9 15 -75 12 -81 -3 -3 -9 -24 -15 -56 -16 -89 -3 -66 -11 31 -11 59 0 90
4 86 10 -3 6 -2 10 4 10 20 0 23 -23 5 -34 -52 -30 -248 -39 -266 -12 -5 7 -8
5 -8 -6 0 -25 -85 -13 -132 19 -42 29 -47 39 -19 39 11 0 17 -5 14 -13 -3 -7
2 -13 11 -13 9 0 16 -4 16 -10 0 -5 5 -10 11 -10 5 0 7 5 4 10 -3 6 2 10 12
10 14 0 15 2 4 9 -8 5 -20 7 -28 4 -7 -3 -13 0 -13 6 0 7 22 11 58 10 31 0 51
-3 45 -6 -19 -7 -15 -20 8 -26 14 -4 19 -2 16 7 -4 9 2 11 20 8 27 -5 135 17
144 30 3 4 58 8 122 9 64 1 115 5 112 9 -3 4 5 10 16 13 11 3 23 15 26 27 4
16 8 18 14 9 5 -8 2 -21 -8 -31z m-43 22 c0 -5 -8 -10 -17 -10 -15 0 -16 2 -3
10 19 12 20 12 20 0z m-583 -42 c-3 -8 -6 -5 -6 6 -1 11 2 17 5 13 3 -3 4 -12
1 -19z m556 15 c-7 -2 -19 -2 -25 0 -7 3 -2 5 12 5 14 0 19 -2 13 -5z"/>
<path d="M11701 3131 c-14 -89 -14 -101 3 -101 15 0 26 50 26 123 0 69 -15 57
-29 -22z"/>
<path d="M11495 2359 c22 -4 51 -8 65 -7 16 0 11 3 -15 9 -22 4 -51 8 -65 7
-16 0 -11 -3 15 -9z"/>
<path d="M11658 2363 c7 -3 16 -2 19 1 4 3 -2 6 -13 5 -11 0 -14 -3 -6 -6z"/>
<path d="M3917 3566 c-70 -19 -127 -63 -156 -121 -25 -47 -26 -58 -25 -195 0
-133 19 -298 44 -385 5 -16 18 -73 30 -125 31 -139 48 -187 100 -290 50 -97
259 -180 453 -180 127 0 204 31 235 93 29 60 46 181 38 279 -3 46 -6 95 -6
110 1 111 -47 402 -85 516 -57 167 -181 268 -369 302 -79 13 -200 12 -259 -4z
m369 -220 c51 -34 99 -174 129 -376 10 -69 26 -316 26 -405 0 -56 3 -73 9 -55
5 15 8 19 9 8 1 -9 7 -18 14 -21 7 -3 5 -7 -8 -12 -71 -26 -94 -39 -82 -47 21
-13 46 -9 68 13 23 23 39 18 19 -6 -10 -12 -10 -19 -1 -28 9 -9 14 -9 21 3 9
13 10 13 10 0 0 -13 1 -13 10 0 8 13 10 13 10 -2 0 -9 -6 -19 -12 -21 -7 -3
-2 -6 11 -6 23 -1 23 -2 8 -19 -10 -10 -17 -25 -17 -34 0 -22 -47 -45 -62 -30
-15 15 -39 15 -35 0 1 -8 -12 -11 -43 -9 -25 2 -48 5 -52 8 -5 2 -8 -1 -8 -7
0 -7 -6 -10 -12 -7 -7 2 -12 8 -11 13 1 5 -19 8 -44 7 -51 -1 -145 27 -151 46
-3 10 0 10 18 1 12 -6 25 -9 28 -5 10 10 -21 26 -40 21 -11 -2 -18 2 -18 10 0
8 -6 11 -16 7 -15 -5 -15 -7 0 -15 9 -5 16 -14 16 -19 0 -12 -81 30 -93 49 -4
6 -13 12 -20 12 -14 0 -72 99 -63 108 4 3 9 -4 13 -16 3 -13 22 -31 44 -43 39
-19 50 -15 27 10 -11 11 -10 13 5 7 10 -3 33 -6 52 -6 25 0 34 -5 38 -21 5
-18 11 -21 37 -15 22 4 36 1 47 -9 16 -17 43 -20 43 -5 0 6 -7 10 -15 10 -18
0 -20 17 -2 23 6 2 0 8 -15 12 -16 4 -28 13 -28 20 0 8 -6 20 -13 27 -11 12
-36 86 -39 116 -1 6 -4 12 -7 12 -3 0 -6 10 -7 23 -1 21 -12 86 -34 190 -18
89 -25 172 -25 304 0 118 2 134 21 160 11 15 32 31 45 35 39 12 168 1 195 -16z
m-186 -776 c0 -13 -1 -13 -10 0 -5 8 -10 22 -10 30 0 13 1 13 10 0 5 -8 10
-22 10 -30z m-210 9 c0 -6 -4 -7 -10 -4 -5 3 -10 11 -10 16 0 6 5 7 10 4 6 -3
10 -11 10 -16z m22 -7 c4 -13 -1 -18 -16 -19 -12 -1 -15 1 -8 4 6 3 12 11 12
19 0 20 7 18 12 -4z m705 -64 c-3 -8 -6 -5 -6 6 -1 11 2 17 5 13 3 -3 4 -12 1
-19z m-482 -18 c3 -5 1 -10 -4 -10 -6 0 -11 5 -11 10 0 6 2 10 4 10 3 0 8 -4
11 -10z m467 -60 c-19 -62 -61 -114 -79 -96 -8 8 7 26 22 26 8 0 20 10 26 23
15 27 21 67 9 67 -11 0 -21 -30 -14 -41 3 -5 0 -17 -5 -26 -9 -16 -10 -15 -11
6 0 14 5 39 12 58 11 31 13 31 28 15 10 -9 15 -24 12 -32z"/>
<path d="M4200 3070 c0 -38 4 -50 15 -50 16 0 19 19 9 69 -10 48 -24 37 -24
-19z"/>
<path d="M3960 2446 c0 -9 5 -16 10 -16 6 0 10 4 10 9 0 6 -4 13 -10 16 -5 3
-10 -1 -10 -9z"/>
<path d="M4214 2451 c4 -6 18 -11 32 -11 34 0 30 -15 -8 -28 -18 -7 -23 -10
-11 -8 13 2 26 0 29 -5 3 -5 38 -8 77 -8 40 1 63 4 52 7 -20 5 -20 5 -1 12 18
6 16 8 -11 22 -37 19 -50 12 -26 -14 15 -17 14 -18 -23 -17 -29 1 -33 3 -17 7
28 9 18 27 -21 36 -16 4 -40 9 -54 13 -17 4 -23 2 -18 -6z"/>
<path d="M4415 2410 c-4 -6 3 -10 14 -10 25 0 27 6 6 13 -8 4 -17 2 -20 -3z"/>
<path d="M4168 2403 c7 -3 16 -2 19 1 4 3 -2 6 -13 5 -11 0 -14 -3 -6 -6z"/>
<path d="M4115 2393 c11 -3 26 -10 33 -15 8 -7 12 -7 12 0 0 12 -25 22 -48 21
-13 -1 -12 -3 3 -6z"/>
<path d="M4482 2355 c0 -16 2 -22 5 -12 2 9 2 23 0 30 -3 6 -5 -1 -5 -18z"/>
<path d="M10875 3553 c-49 -12 -82 -35 -93 -66 -19 -54 -26 -151 -12 -177 12
-22 16 -23 106 -17 108 7 131 16 149 60 16 40 28 158 18 173 -21 30 -102 43
-168 27z"/>
<path d="M4913 3474 c-21 -10 -36 -28 -43 -49 -11 -34 4 -970 16 -1027 8 -34
21 -36 27 -5 3 13 5 8 6 -15 0 -21 6 -38 12 -38 6 0 8 -7 5 -16 -5 -12 -2 -15
10 -10 8 3 51 6 94 6 l79 0 4 38 c4 34 4 34 3 -5 -1 -24 3 -43 7 -43 4 0 7
-21 5 -47 l-3 -46 -60 -1 c-60 -1 -117 14 -141 38 -7 7 -14 30 -16 51 -2 22
-9 40 -17 43 -11 4 -13 -5 -7 -49 8 -60 27 -82 86 -99 50 -14 156 -13 167 3 6
7 6 78 2 177 -4 91 -8 250 -8 354 -1 159 1 187 13 177 7 -6 39 -91 70 -189 32
-97 61 -184 65 -192 5 -9 12 -31 16 -50 4 -19 13 -48 20 -65 7 -16 25 -63 41
-103 31 -83 55 -102 124 -102 38 0 42 3 56 37 10 22 16 72 17 129 1 50 5 90 9
88 9 -6 16 20 23 86 10 89 46 283 56 302 5 10 14 18 20 18 21 0 35 -69 73
-365 45 -356 44 -348 71 -372 20 -18 38 -23 79 -23 29 0 59 6 68 13 21 16 28
41 17 58 -7 11 -9 9 -9 -7 0 -26 -22 -36 -58 -28 -21 4 -24 3 -12 -5 13 -9 13
-11 -2 -11 -9 0 -19 4 -22 9 -3 5 -16 7 -28 3 -15 -3 -19 -2 -14 7 4 7 2 10
-5 9 -7 -2 -16 12 -20 32 -4 19 -12 53 -18 75 -6 22 -11 44 -11 50 0 15 18 -8
23 -30 2 -11 3 3 2 30 l-3 50 11 -47 c6 -27 14 -48 19 -48 4 0 8 -7 8 -15 0
-9 9 -15 23 -15 12 0 32 -7 44 -15 19 -13 21 -13 26 5 3 11 2 22 -1 24 -4 2
-5 39 -2 83 6 94 2 146 -39 418 -17 116 -38 257 -46 315 -46 333 -53 356 -120
377 -49 14 -106 16 -138 4 -47 -18 -60 -72 -118 -486 -34 -251 -42 -310 -43
-337 -1 -14 -4 -29 -8 -33 -6 -7 -53 127 -89 255 -39 138 -46 164 -83 290 -21
69 -43 148 -51 175 -33 120 -38 129 -85 153 -54 27 -148 30 -197 6z m624
-1016 c-3 -8 -6 -5 -6 6 -1 11 2 17 5 13 3 -3 4 -12 1 -19z m-193 -4 c3 -8 2
-12 -4 -9 -6 3 -10 10 -10 16 0 14 7 11 14 -7z m-404 -36 c0 -10 3 -17 8 -14
4 2 8 -13 8 -35 1 -32 -1 -37 -12 -28 -8 7 -14 21 -13 33 3 38 -1 57 -11 51
-5 -3 -10 1 -10 9 0 10 6 13 15 10 8 -4 15 -15 15 -26z m610 -28 c0 -19 -18
-19 -23 -1 -3 14 -1 18 9 14 8 -3 14 -9 14 -13z m-116 -53 c2 -14 -1 -31 -5
-39 -6 -9 -8 -7 -7 7 1 11 -2 34 -6 50 -6 22 -5 27 4 19 6 -6 13 -23 14 -37z
m-35 -10 c5 -18 12 -41 17 -52 7 -18 6 -18 -8 -7 -9 7 -20 28 -24 45 -3 18
-11 38 -17 45 -7 9 -6 11 6 6 9 -3 21 -20 26 -37z m145 7 c0 -5 -4 -28 -9 -52
l-8 -43 -46 3 c-37 2 -46 7 -49 23 -2 15 -1 17 6 7 7 -10 11 -4 16 22 5 27 12
36 26 36 14 0 20 -7 20 -24 0 -25 -22 -51 -33 -39 -4 3 -7 1 -7 -5 0 -7 14
-12 30 -12 31 0 34 7 33 83 0 10 5 16 11 14 6 -2 11 -8 10 -13z m293 -16 c-3
-7 -5 -2 -5 12 0 14 2 19 5 13 2 -7 2 -19 0 -25z"/>
<path d="M10225 3480 c-167 -10 -422 -39 -454 -52 -34 -12 -41 -25 -41 -75 0
-76 -3 -75 133 -67 l120 7 -6 -184 c-4 -101 -11 -233 -17 -294 -10 -116 -17
-225 -25 -414 -5 -98 -3 -112 10 -107 9 3 15 0 15 -9 0 -8 -4 -15 -10 -15 -5
0 -10 -6 -10 -14 0 -16 27 -29 41 -20 8 4 14 -17 10 -38 0 -5 23 -7 52 -6 48
1 49 2 12 6 -36 4 -38 6 -15 12 25 8 24 8 -5 10 -26 1 -27 3 -10 10 18 8 17 9
-7 9 -21 1 -28 6 -28 20 0 15 5 18 23 13 12 -3 26 -10 30 -16 6 -8 10 -7 14 2
2 6 16 12 29 12 13 0 24 -6 24 -12 0 -9 4 -8 10 2 8 11 12 12 18 3 5 -9 13 -5
27 13 18 24 20 24 26 7 6 -14 8 -13 8 9 1 15 5 30 11 33 5 3 7 0 4 -8 -3 -8
-1 -18 5 -22 7 -4 11 13 11 50 0 40 -3 54 -12 49 -7 -5 -8 -3 -3 6 11 18 13
39 24 320 16 388 36 565 69 593 8 6 55 14 104 18 99 6 104 9 114 77 5 31 3 48
-8 58 -18 19 -131 24 -293 14z m-25 -1120 c0 -5 -5 -10 -11 -10 -5 0 -7 5 -4
10 3 6 8 10 11 10 2 0 4 -4 4 -10z m-203 -42 c-3 -8 -6 -5 -6 6 -1 11 2 17 5
13 3 -3 4 -12 1 -19z m170 -10 c-3 -8 -6 -5 -6 6 -1 11 2 17 5 13 3 -3 4 -12
1 -19z m-191 -66 c-11 -10 -14 3 -8 33 l7 30 3 -28 c2 -16 1 -31 -2 -35z"/>
<path d="M4640 3458 c0 -7 9 -24 19 -37 l18 -24 5 36 c4 33 2 37 -19 37 -13 0
-23 -6 -23 -12z"/>
<path d="M9273 3451 c-18 -5 -40 -14 -48 -21 -21 -17 -35 -75 -35 -142 0 -46
4 -62 21 -79 20 -20 30 -21 113 -17 138 7 151 20 162 152 8 95 -6 110 -109
113 -40 1 -87 -2 -104 -6z"/>
<path d="M6295 3422 c-86 -8 -95 -21 -120 -166 -23 -133 -9 -434 35 -766 7
-55 12 -82 20 -110 1 -3 2 -32 3 -65 2 -51 5 -60 20 -57 9 2 17 -2 17 -8 0 -5
4 -10 8 -10 5 0 6 14 4 31 -3 24 -1 30 8 24 7 -4 10 -20 8 -37 -3 -16 -1 -31
3 -34 5 -3 6 -19 2 -37 -3 -18 -2 -29 2 -25 4 4 8 28 9 55 l1 48 75 3 76 3 12
-35 c7 -19 10 -46 6 -60 -6 -24 -10 -25 -87 -29 l-82 -3 84 0 84 1 12 35 c10
29 13 32 17 15 5 -17 6 -18 7 -2 0 10 -6 25 -14 33 -8 9 -14 25 -14 37 2 22 2
22 6 0 2 -13 9 -23 14 -23 11 0 11 -6 -2 66 -6 32 -16 66 -22 74 -6 8 -8 12
-3 8 5 -4 25 4 45 17 19 14 39 25 43 25 5 0 49 25 100 56 147 92 251 207 299
333 24 62 35 183 24 258 -6 43 -15 56 -85 124 -111 108 -220 162 -405 200 -76
15 -171 25 -210 21z m302 -218 c72 -25 132 -72 161 -129 22 -42 26 -64 27
-130 0 -68 -4 -88 -29 -138 -54 -109 -194 -223 -264 -215 -39 5 -44 36 -45
293 -2 228 4 283 36 323 13 17 57 15 114 -4z m-77 -769 c-7 -8 -18 -15 -24
-15 -6 0 -2 7 8 15 25 19 32 19 16 0z m-33 -132 c-3 -10 -5 -2 -5 17 0 19 2
27 5 18 2 -10 2 -26 0 -35z"/>
<path d="M8480 3409 c-205 -12 -325 -26 -349 -39 -17 -8 -21 -20 -21 -58 0
-77 7 -81 145 -84 l120 -3 0 -470 c0 -354 3 -477 13 -498 6 -16 12 -36 11 -45
-1 -11 -4 -8 -9 8 -6 18 -7 11 -5 -25 2 -27 4 -58 4 -68 2 -59 297 -64 302 -5
5 59 -6 226 -16 252 -8 19 -10 38 -5 46 5 8 9 167 9 354 0 328 8 433 32 463 8
9 38 13 104 13 107 0 125 11 125 76 0 48 -7 60 -43 73 -40 16 -250 21 -417 10z
m177 -1161 c-3 -8 -6 -5 -6 6 -1 11 2 17 5 13 3 -3 4 -12 1 -19z m23 -73 c0
-31 -15 -55 -34 -55 -5 0 -1 9 9 20 13 14 15 26 9 47 l-8 28 -5 -35 c-4 -22
-12 -36 -23 -38 -10 -2 -18 1 -18 7 0 6 6 8 13 5 8 -3 14 6 15 28 5 61 42 55
42 -7z m-236 0 c-7 -18 -44 -20 -44 -2 0 7 11 14 25 15 18 1 23 -2 19 -13z
m186 6 c0 -5 -12 -12 -26 -15 -31 -8 -27 -30 7 -34 20 -4 18 -6 -16 -18 -48
-17 -115 -18 -115 -3 0 7 -9 9 -23 5 -14 -3 -32 1 -43 8 -22 17 -19 21 19 30
29 7 39 -9 10 -17 -10 -3 11 -3 46 0 47 4 65 2 72 -8 6 -10 8 -9 7 6 -2 17 -9
20 -50 18 -38 -1 -47 2 -39 11 6 7 8 16 4 19 -3 4 28 7 70 7 43 0 77 -4 77 -9z"/>
<path d="M8505 2120 c3 -5 15 -10 26 -10 10 0 19 5 19 10 0 6 -12 10 -26 10
-14 0 -23 -4 -19 -10z"/>
<path d="M7266 3377 c-9 -12 -23 -54 -31 -92 -23 -98 -32 -529 -15 -690 7 -66
14 -144 16 -172 7 -89 42 -280 56 -302 20 -32 59 -43 125 -36 173 19 316 38
376 51 38 8 70 14 72 14 2 0 11 7 19 16 19 18 21 73 4 78 -7 2 -28 8 -46 14
-22 7 -43 7 -65 1 -17 -6 -77 -12 -133 -14 l-101 -3 -7 81 c-11 150 -9 166 20
177 15 6 61 13 103 16 117 8 119 9 127 51 5 25 2 45 -7 62 -15 26 -16 26 -144
26 l-129 0 -7 25 c-13 45 -9 322 5 411 15 94 29 125 61 133 11 3 67 -1 126
-10 126 -18 153 -12 175 42 19 46 13 61 -31 80 -79 33 -310 64 -477 64 -70 0
-79 -2 -92 -23z m11 -1049 c-3 -7 -5 -2 -5 12 0 14 2 19 5 13 2 -7 2 -19 0
-25z m599 -133 c-3 -8 -10 -15 -15 -15 -5 0 -4 11 2 25 12 25 23 16 13 -10z
m-562 -37 c-5 -8 -2 -9 12 -2 29 13 224 7 239 -8 2 -2 -16 -8 -41 -14 -25 -6
-47 -7 -50 -2 -3 4 7 9 23 9 15 1 -3 5 -41 10 -43 5 -77 4 -88 -2 -10 -6 -23
-7 -28 -4 -6 3 -10 1 -10 -4 0 -6 14 -11 31 -11 17 0 28 4 24 10 -3 6 3 10 14
10 29 0 36 -19 9 -24 -51 -11 -65 -10 -88 9 -17 14 -24 28 -22 45 3 21 5 22
14 7 5 -9 6 -22 2 -29z m446 2 c0 -12 -8 -12 -35 0 -18 8 -17 9 8 9 15 1 27
-3 27 -9z m-95 -10 c4 -6 -10 -9 -37 -9 l-43 2 35 7 c19 4 36 8 37 9 1 0 5 -3
8 -9z"/>
<path d="M10845 3170 c-33 -4 -68 -11 -78 -15 -34 -14 -56 -149 -93 -560 -17
-195 -17 -225 -3 -225 8 0 10 17 6 55 -4 36 -2 55 5 55 7 0 9 -24 6 -70 -4
-45 -1 -71 6 -75 8 -3 7 -7 -1 -11 -7 -3 -13 -18 -12 -32 l1 -27 8 25 c5 17 8
19 9 8 1 -10 5 -18 11 -18 5 0 8 12 6 28 -2 15 -1 21 1 14 4 -11 22 -12 83 -7
71 6 79 5 83 -12 2 -10 2 -2 0 17 -3 26 -1 31 6 20 8 -11 11 -11 11 -2 0 7 5
10 10 7 6 -3 10 5 10 19 0 13 -5 26 -11 28 -8 3 -7 13 3 33 11 21 17 79 22
183 7 155 26 343 46 441 15 77 13 118 -6 125 -18 7 -46 6 -129 -4z"/>
<path d="M9278 3071 c-79 -9 -94 -19 -102 -69 -10 -63 -26 -271 -32 -417 -3
-77 -8 -143 -11 -148 -2 -4 -1 -65 3 -135 4 -70 9 -121 11 -114 7 18 23 4 23
-19 0 -10 5 -19 11 -19 5 0 7 5 3 11 -3 6 0 15 7 20 20 12 109 11 109 -1 0 -7
6 -7 19 0 29 15 37 12 15 -6 -17 -14 -17 -15 -1 -10 10 3 23 6 29 6 6 0 8 7 5
15 -4 8 -2 17 3 20 6 4 10 -2 10 -12 0 -11 4 -23 10 -29 15 -15 -2 -29 -52
-41 -39 -8 -48 -8 -48 3 0 9 -11 14 -32 13 l-33 -1 30 -7 c27 -7 25 -8 -20
-13 -35 -3 -53 -1 -61 9 -16 18 -24 16 -24 -7 0 -41 64 -50 180 -25 69 15 90
32 90 77 0 29 -14 38 -23 16 -3 -7 -6 3 -6 22 -1 26 2 31 9 20 7 -11 10 -1 10
35 4 304 19 633 35 742 3 21 2 44 -3 50 -11 17 -82 23 -164 14z m99 -833 c-3
-7 -5 -2 -5 12 0 14 2 19 5 13 2 -7 2 -19 0 -25z"/>
<path d="M5940 2332 c0 -38 4 -62 11 -62 7 0 8 19 3 58 -9 77 -14 78 -14 4z"/>
<path d="M10661 2324 c0 -11 3 -14 6 -6 3 7 2 16 -1 19 -3 4 -6 -2 -5 -13z"/>
<path d="M10900 2294 c0 -43 -26 -59 -96 -58 -35 0 -59 -3 -53 -7 17 -10 -4
-18 -36 -15 -19 2 -32 11 -38 27 l-10 24 -5 -23 c-9 -52 29 -62 152 -38 49 10
75 20 88 36 19 24 25 80 8 80 -5 0 -10 -12 -10 -26z"/>
<path d="M4935 2280 c3 -5 8 -10 11 -10 2 0 4 5 4 10 0 6 -5 10 -11 10 -5 0
-7 -4 -4 -10z"/>
<path d="M5122 2250 c0 -14 2 -19 5 -12 2 6 2 18 0 25 -3 6 -5 1 -5 -13z"/>
<path d="M10211 2254 c0 -11 3 -14 6 -6 3 7 2 16 -1 19 -3 4 -6 -2 -5 -13z"/>
<path d="M10169 2248 c-1 -7 -1 -18 0 -25 1 -6 -13 -14 -31 -16 l-33 -4 30 -1
c17 -1 37 3 45 8 13 9 13 11 0 20 -10 6 -11 10 -2 10 6 0 12 5 12 10 0 15 -20
12 -21 -2z"/>
<path d="M5821 2235 c0 -11 4 -29 9 -40 l9 -20 0 20 c0 11 -4 29 -9 40 l-9 20
0 -20z"/>
<path d="M5945 2238 c-10 -27 -10 -77 0 -75 6 1 9 20 8 42 -2 34 -1 36 7 15
l8 -25 1 28 c1 27 -16 38 -24 15z m2 -70 c-3 -8 -6 -5 -6 6 -1 11 2 17 5 13 3
-3 4 -12 1 -19z"/>
<path d="M10706 2241 c-3 -5 1 -11 9 -14 9 -4 12 -1 8 9 -6 16 -10 17 -17 5z"/>
<path d="M5008 2233 c7 -3 16 -2 19 1 4 3 -2 6 -13 5 -11 0 -14 -3 -6 -6z"/>
<path d="M5053 2233 c9 -2 25 -2 35 0 9 3 1 5 -18 5 -19 0 -27 -2 -17 -5z"/>
<path d="M6260 2221 c0 -6 4 -11 9 -11 5 0 12 -8 15 -17 3 -11 4 -8 3 6 -2 24
-27 44 -27 22z"/>
<path d="M9934 2204 c4 -16 11 -33 15 -37 13 -13 183 -9 225 5 39 13 66 41 53
54 -4 4 -18 -2 -30 -14 -20 -19 -40 -23 -120 -29 -91 -6 -97 -5 -98 13 0 11
-3 13 -6 7 -7 -19 -24 -16 -21 3 2 10 -3 19 -11 22 -11 4 -12 -2 -7 -24z"/>
<path d="M10088 2223 c7 -3 16 -2 19 1 4 3 -2 6 -13 5 -11 0 -14 -3 -6 -6z"/>
<path d="M6254 2168 c11 -55 18 -58 146 -58 100 0 119 2 124 16 8 22 -1 31
-16 16 -15 -15 -212 -17 -203 -2 3 5 0 7 -8 4 -10 -3 -18 5 -25 25 -14 40 -26
40 -18 -1z"/>
<path d="M9213 2153 c9 -2 25 -2 35 0 9 3 1 5 -18 5 -19 0 -27 -2 -17 -5z"/>
<path d="M9298 2153 c7 -3 10 -9 7 -14 -8 -12 16 -11 35 1 13 9 13 10 0 10 -8
0 -24 2 -35 4 -11 2 -14 1 -7 -1z"/>
<path d="M9365 2150 c-3 -5 -1 -10 4 -10 6 0 11 5 11 10 0 6 -2 10 -4 10 -3 0
-8 -4 -11 -10z"/>
<path d="M9188 2133 c7 -3 16 -2 19 1 4 3 -2 6 -13 5 -11 0 -14 -3 -6 -6z"/>
</g>
</svg>
